;TYPE=PLATED
;Layer: PTH_Through
;EasyEDA Pro Client v1.8.39.fb3963, 2022-11-08 16:35:26
;Gerber Generator version 0.3
M48
METRIC,LZ,000.000
;Hole size 1 = 0.305 METRIC
T01C0.305
;Hole size 2 = 1.001 METRIC
T02C1.001
;Hole size 3 = 1.199 METRIC
T03C1.199
;Hole size 4 = 1.200 METRIC
T04C1.200
%
G05
G90
T01
X028956Y-044323
X008636Y-035179
X007874Y-031242
X022352Y-017399
X014252Y-036484
X022987Y-032385
X021282Y-034725
X028194Y-033274
X029464Y-036322
X025400Y-026416
X029083Y-029210
X027940Y-021844
X031242Y-026035
X030861Y-019685
X024003Y-029845
X028829Y-021336
X031877Y-014859
X016002Y-015113
T02
X004699Y-012001
X004699Y-020002
X036132Y-041656
X028131Y-041656
T03
X008329Y-041448
X001829Y-041448
X001829Y-037546
X008329Y-037546
T04
X013335Y-040767
X015875Y-040767
X018415Y-040767
X020955Y-040767
X023495Y-040767
M30