G04 Layer: TopSilkscreenLayer*
G04 EasyEDA Pro v1.8.39.fb3963, 2022-11-08 16:35:25*
G04 Gerber Generator version 0.3*
G04 Scale: 100 percent, Rotated: No, Reflected: No*
G04 Dimensions in millimeters*
G04 Leading zeros omitted, absolute positions, 3 integers and 3 decimals*
%FSLAX33Y33*%
%MOMM*%
%ADD10C,0.2032*%
%ADD11C,0.1524*%
%ADD12C,0.254*%
%ADD13C,0.24892*%
%ADD14C,0.151994*%
%ADD15C,0.14986*%
%ADD16C,0.5045*%
%ADD17C,0.499999*%
G75*


G04 Text Start*
G04 //text: WIFI*
G54D10*
G01X17586Y-19194D02*
G01X18788Y-18907D01*
G01X17586Y-18622D02*
G01X18788Y-18907D01*
G01X17586Y-18622D02*
G01X18788Y-18335D01*
G01X17586Y-18051D02*
G01X18788Y-18335D01*
G01X17586Y-17573D02*
G01X18788Y-17573D01*
G01X17586Y-17096D02*
G01X18788Y-17096D01*
G01X17586Y-17096D02*
G01X17586Y-16351D01*
G01X18158Y-17096D02*
G01X18158Y-16638D01*
G01X17586Y-15874D02*
G01X18788Y-15874D01*
G04 //text: U3*
G54D11*
G01X8000Y-6615D02*
G01X8465Y-6615D01*
G01X8557Y-6585D01*
G01X8620Y-6521D01*
G01X8651Y-6430D01*
G01Y-6366D01*
G01X8620Y-6275D01*
G01X8557Y-6214D01*
G01X8465Y-6181D01*
G01X8000D01*
G01X8000Y-5817D02*
G01X8000Y-5477D01*
G01X8247Y-5665D01*
G01Y-5571D01*
G01X8277Y-5510D01*
G01X8310Y-5477D01*
G01X8402Y-5447D01*
G01X8465D01*
G01X8557Y-5477D01*
G01X8620Y-5541D01*
G01X8651Y-5632D01*
G01Y-5726D01*
G01X8620Y-5817D01*
G01X8587Y-5851D01*
G01X8526Y-5881D01*
G04 //text: U4*
G01X26365Y-34237D02*
G01X26365Y-34701D01*
G01X26396Y-34793D01*
G01X26459Y-34856D01*
G01X26551Y-34887D01*
G01X26614D01*
G01X26706Y-34856D01*
G01X26767Y-34793D01*
G01X26800Y-34701D01*
G01Y-34237D01*
G01X27409Y-34237D02*
G01X27099Y-34668D01*
G01X27564D01*
G01X27409Y-34237D02*
G01X27409Y-34887D01*
G04 //text: C1*
G01X10783Y-33231D02*
G01X10753Y-33167D01*
G01X10689Y-33106D01*
G01X10628Y-33076D01*
G01X10504D01*
G01X10443Y-33106D01*
G01X10379Y-33167D01*
G01X10349Y-33231D01*
G01X10318Y-33322D01*
G01Y-33477D01*
G01X10349Y-33571D01*
G01X10379Y-33632D01*
G01X10443Y-33696D01*
G01X10504Y-33726D01*
G01X10628D01*
G01X10689Y-33696D01*
G01X10753Y-33632D01*
G01X10783Y-33571D01*
G01X11083Y-33200D02*
G01X11146Y-33167D01*
G01X11238Y-33076D01*
G01Y-33726D01*
G04 //text: D1*
G01X17580Y-31695D02*
G01X18230Y-31695D01*
G01X17580Y-31695D02*
G01X17580Y-31479D01*
G01X17611Y-31386D01*
G01X17672Y-31325D01*
G01X17735Y-31294D01*
G01X17827Y-31261D01*
G01X17981D01*
G01X18075Y-31294D01*
G01X18136Y-31325D01*
G01X18200Y-31386D01*
G01X18230Y-31479D01*
G01Y-31695D01*
G01X17705Y-30961D02*
G01X17672Y-30898D01*
G01X17580Y-30806D01*
G01X18230D01*
G04 //text: R3*
G01X31397Y-31118D02*
G01X30747Y-31118D01*
G01X31397Y-31118D02*
G01X31397Y-31398D01*
G01X31367Y-31489D01*
G01X31336Y-31520D01*
G01X31273Y-31553D01*
G01X31212D01*
G01X31151Y-31520D01*
G01X31120Y-31489D01*
G01X31087Y-31398D01*
G01Y-31118D01*
G01X31087Y-31334D02*
G01X30747Y-31553D01*
G01X31397Y-31916D02*
G01X31397Y-32256D01*
G01X31151Y-32068D01*
G01Y-32162D01*
G01X31120Y-32223D01*
G01X31087Y-32256D01*
G01X30996Y-32287D01*
G01X30932D01*
G01X30841Y-32256D01*
G01X30777Y-32193D01*
G01X30747Y-32101D01*
G01Y-32007D01*
G01X30777Y-31916D01*
G01X30810Y-31883D01*
G01X30871Y-31852D01*
G04 //text: R4*
G01X8816Y-26492D02*
G01X8166Y-26492D01*
G01X8816Y-26492D02*
G01X8816Y-26772D01*
G01X8786Y-26863D01*
G01X8755Y-26894D01*
G01X8692Y-26927D01*
G01X8631D01*
G01X8570Y-26894D01*
G01X8539Y-26863D01*
G01X8506Y-26772D01*
G01Y-26492D01*
G01X8506Y-26708D02*
G01X8166Y-26927D01*
G01X8816Y-27536D02*
G01X8385Y-27226D01*
G01Y-27691D01*
G01X8816Y-27536D02*
G01X8166Y-27536D01*
G04 //text: SW1*
G01X7929Y-43043D02*
G01X7865Y-42982D01*
G01X7774Y-42951D01*
G01X7649D01*
G01X7555Y-42982D01*
G01X7494Y-43043D01*
G01Y-43106D01*
G01X7525Y-43167D01*
G01X7555Y-43198D01*
G01X7619Y-43228D01*
G01X7804Y-43292D01*
G01X7865Y-43322D01*
G01X7896Y-43353D01*
G01X7929Y-43416D01*
G01Y-43508D01*
G01X7865Y-43571D01*
G01X7774Y-43602D01*
G01X7649D01*
G01X7555Y-43571D01*
G01X7494Y-43508D01*
G01X8228Y-42951D02*
G01X8383Y-43602D01*
G01X8538Y-42951D02*
G01X8383Y-43602D01*
G01X8538Y-42951D02*
G01X8693Y-43602D01*
G01X8848Y-42951D02*
G01X8693Y-43602D01*
G01X9148Y-43076D02*
G01X9211Y-43043D01*
G01X9303Y-42951D01*
G01Y-43602D01*
G04 //text: R5*
G01X4854Y-26691D02*
G01X4204Y-26691D01*
G01X4854Y-26691D02*
G01X4854Y-26970D01*
G01X4824Y-27061D01*
G01X4793Y-27092D01*
G01X4730Y-27125D01*
G01X4669D01*
G01X4608Y-27092D01*
G01X4577Y-27061D01*
G01X4544Y-26970D01*
G01Y-26691D01*
G01X4544Y-26906D02*
G01X4204Y-27125D01*
G01X4854Y-27795D02*
G01X4854Y-27488D01*
G01X4577Y-27455D01*
G01X4608Y-27488D01*
G01X4638Y-27580D01*
G01Y-27674D01*
G01X4608Y-27765D01*
G01X4544Y-27828D01*
G01X4453Y-27859D01*
G01X4389D01*
G01X4298Y-27828D01*
G01X4234Y-27765D01*
G01X4204Y-27674D01*
G01Y-27580D01*
G01X4234Y-27488D01*
G01X4267Y-27455D01*
G01X4328Y-27425D01*
G04 //text: R6*
G01X4671Y-33761D02*
G01X5321Y-33761D01*
G01X4671Y-33761D02*
G01X4671Y-33482D01*
G01X4701Y-33391D01*
G01X4732Y-33360D01*
G01X4795Y-33327D01*
G01X4856D01*
G01X4917Y-33360D01*
G01X4948Y-33391D01*
G01X4981Y-33482D01*
G01Y-33761D01*
G01X4981Y-33546D02*
G01X5321Y-33327D01*
G01X4762Y-32657D02*
G01X4701Y-32687D01*
G01X4671Y-32778D01*
G01Y-32842D01*
G01X4701Y-32933D01*
G01X4795Y-32997D01*
G01X4948Y-33027D01*
G01X5103D01*
G01X5227Y-32997D01*
G01X5291Y-32933D01*
G01X5321Y-32842D01*
G01Y-32811D01*
G01X5291Y-32718D01*
G01X5227Y-32657D01*
G01X5136Y-32624D01*
G01X5103D01*
G01X5011Y-32657D01*
G01X4948Y-32718D01*
G01X4917Y-32811D01*
G01Y-32842D01*
G01X4948Y-32933D01*
G01X5011Y-32997D01*
G01X5103Y-33027D01*
G04 //text: LED1*
G01X1276Y-33910D02*
G01X1927Y-33910D01*
G01X1927Y-33910D02*
G01X1927Y-33539D01*
G01X1276Y-33237D02*
G01X1927Y-33237D01*
G01X1276Y-33237D02*
G01X1276Y-32836D01*
G01X1586Y-33237D02*
G01X1586Y-32991D01*
G01X1927Y-33237D02*
G01X1927Y-32836D01*
G01X1276Y-32534D02*
G01X1927Y-32534D01*
G01X1276Y-32534D02*
G01X1276Y-32318D01*
G01X1307Y-32224D01*
G01X1368Y-32163D01*
G01X1431Y-32132D01*
G01X1523Y-32102D01*
G01X1678D01*
G01X1772Y-32132D01*
G01X1833Y-32163D01*
G01X1896Y-32224D01*
G01X1927Y-32318D01*
G01Y-32534D01*
G01X1401Y-31800D02*
G01X1368Y-31739D01*
G01X1276Y-31645D01*
G01X1927D01*
G04 //text: R2*
G01X22634Y-30991D02*
G01X21984Y-30991D01*
G01X22634Y-30991D02*
G01X22634Y-31271D01*
G01X22604Y-31362D01*
G01X22573Y-31393D01*
G01X22510Y-31426D01*
G01X22449D01*
G01X22388Y-31393D01*
G01X22357Y-31362D01*
G01X22324Y-31271D01*
G01Y-30991D01*
G01X22324Y-31207D02*
G01X21984Y-31426D01*
G01X22479Y-31756D02*
G01X22510Y-31756D01*
G01X22573Y-31789D01*
G01X22604Y-31819D01*
G01X22634Y-31880D01*
G01Y-32005D01*
G01X22604Y-32066D01*
G01X22573Y-32096D01*
G01X22510Y-32129D01*
G01X22449D01*
G01X22388Y-32096D01*
G01X22294Y-32035D01*
G01X21984Y-31725D01*
G01Y-32160D01*
G04 //text: C2*
G01X28411Y-36343D02*
G01X28380Y-36280D01*
G01X28317Y-36219D01*
G01X28256Y-36188D01*
G01X28131D01*
G01X28070Y-36219D01*
G01X28007Y-36280D01*
G01X27976Y-36343D01*
G01X27946Y-36435D01*
G01Y-36590D01*
G01X27976Y-36684D01*
G01X28007Y-36744D01*
G01X28070Y-36808D01*
G01X28131Y-36838D01*
G01X28256D01*
G01X28317Y-36808D01*
G01X28380Y-36744D01*
G01X28411Y-36684D01*
G01X28743Y-36343D02*
G01X28743Y-36313D01*
G01X28774Y-36249D01*
G01X28804Y-36219D01*
G01X28865Y-36188D01*
G01X28990D01*
G01X29051Y-36219D01*
G01X29084Y-36249D01*
G01X29114Y-36313D01*
G01Y-36374D01*
G01X29084Y-36435D01*
G01X29020Y-36529D01*
G01X28710Y-36838D01*
G01X29145D01*
G04 //text: D2*
G01X6611Y-14546D02*
G01X5961Y-14546D01*
G01X6611Y-14546D02*
G01X6611Y-14762D01*
G01X6580Y-14856D01*
G01X6519Y-14917D01*
G01X6456Y-14947D01*
G01X6364Y-14980D01*
G01X6209D01*
G01X6115Y-14947D01*
G01X6055Y-14917D01*
G01X5991Y-14856D01*
G01X5961Y-14762D01*
G01Y-14546D01*
G01X6456Y-15310D02*
G01X6486Y-15310D01*
G01X6550Y-15343D01*
G01X6580Y-15374D01*
G01X6611Y-15435D01*
G01Y-15559D01*
G01X6580Y-15620D01*
G01X6550Y-15651D01*
G01X6486Y-15684D01*
G01X6425D01*
G01X6364Y-15651D01*
G01X6270Y-15590D01*
G01X5961Y-15280D01*
G01Y-15714D01*
G04 //text: D3*
G01X33587Y-43568D02*
G01X33587Y-42918D01*
G01X33587Y-43568D02*
G01X33371Y-43568D01*
G01X33277Y-43537D01*
G01X33216Y-43476D01*
G01X33186Y-43413D01*
G01X33153Y-43321D01*
G01Y-43166D01*
G01X33186Y-43072D01*
G01X33216Y-43012D01*
G01X33277Y-42948D01*
G01X33371Y-42918D01*
G01X33587D01*
G01X32790Y-43568D02*
G01X32449Y-43568D01*
G01X32637Y-43321D01*
G01X32543D01*
G01X32482Y-43291D01*
G01X32449Y-43258D01*
G01X32419Y-43166D01*
G01Y-43103D01*
G01X32449Y-43012D01*
G01X32513Y-42948D01*
G01X32604Y-42918D01*
G01X32698D01*
G01X32790Y-42948D01*
G01X32823Y-42981D01*
G01X32853Y-43042D01*
G04 //text: CN1*
G01X24777Y-43677D02*
G01X24747Y-43613D01*
G01X24683Y-43552D01*
G01X24622Y-43522D01*
G01X24498D01*
G01X24437Y-43552D01*
G01X24373Y-43613D01*
G01X24343Y-43677D01*
G01X24312Y-43768D01*
G01Y-43923D01*
G01X24343Y-44017D01*
G01X24373Y-44078D01*
G01X24437Y-44141D01*
G01X24498Y-44172D01*
G01X24622D01*
G01X24683Y-44141D01*
G01X24747Y-44078D01*
G01X24777Y-44017D01*
G01X25077Y-43522D02*
G01X25077Y-44172D01*
G01X25077Y-43522D02*
G01X25511Y-44172D01*
G01X25511Y-43522D02*
G01X25511Y-44172D01*
G01X25811Y-43646D02*
G01X25874Y-43613D01*
G01X25966Y-43522D01*
G01Y-44172D01*
G04 //text: R7*
G01X33245Y-32941D02*
G01X33245Y-33592D01*
G01X33245Y-32941D02*
G01X33525Y-32941D01*
G01X33616Y-32972D01*
G01X33647Y-33002D01*
G01X33680Y-33066D01*
G01Y-33127D01*
G01X33647Y-33188D01*
G01X33616Y-33218D01*
G01X33525Y-33251D01*
G01X33245D01*
G01X33461Y-33251D02*
G01X33680Y-33592D01*
G01X34414Y-32941D02*
G01X34104Y-33592D01*
G01X33979Y-32941D02*
G01X34414Y-32941D01*
G04 //text: R8*
G01X33228Y-39164D02*
G01X33228Y-39815D01*
G01X33228Y-39164D02*
G01X33507Y-39164D01*
G01X33599Y-39195D01*
G01X33629Y-39225D01*
G01X33662Y-39289D01*
G01Y-39350D01*
G01X33629Y-39411D01*
G01X33599Y-39441D01*
G01X33507Y-39474D01*
G01X33228D01*
G01X33444Y-39474D02*
G01X33662Y-39815D01*
G01X34117Y-39164D02*
G01X34026Y-39195D01*
G01X33993Y-39256D01*
G01Y-39319D01*
G01X34026Y-39380D01*
G01X34087Y-39411D01*
G01X34211Y-39441D01*
G01X34302Y-39474D01*
G01X34366Y-39535D01*
G01X34396Y-39596D01*
G01Y-39690D01*
G01X34366Y-39751D01*
G01X34333Y-39784D01*
G01X34242Y-39815D01*
G01X34117D01*
G01X34026Y-39784D01*
G01X33993Y-39751D01*
G01X33962Y-39690D01*
G01Y-39596D01*
G01X33993Y-39535D01*
G01X34056Y-39474D01*
G01X34148Y-39441D01*
G01X34272Y-39411D01*
G01X34333Y-39380D01*
G01X34366Y-39319D01*
G01Y-39256D01*
G01X34333Y-39195D01*
G01X34242Y-39164D01*
G01X34117D01*
G04 //text: R9*
G01X33259Y-36116D02*
G01X33259Y-36767D01*
G01X33259Y-36116D02*
G01X33538Y-36116D01*
G01X33629Y-36147D01*
G01X33660Y-36177D01*
G01X33693Y-36241D01*
G01Y-36302D01*
G01X33660Y-36363D01*
G01X33629Y-36393D01*
G01X33538Y-36426D01*
G01X33259D01*
G01X33474Y-36426D02*
G01X33693Y-36767D01*
G01X34396Y-36332D02*
G01X34363Y-36426D01*
G01X34302Y-36487D01*
G01X34208Y-36518D01*
G01X34178D01*
G01X34087Y-36487D01*
G01X34023Y-36426D01*
G01X33993Y-36332D01*
G01Y-36302D01*
G01X34023Y-36208D01*
G01X34087Y-36147D01*
G01X34178Y-36116D01*
G01X34208D01*
G01X34302Y-36147D01*
G01X34363Y-36208D01*
G01X34396Y-36332D01*
G01Y-36487D01*
G01X34363Y-36642D01*
G01X34302Y-36736D01*
G01X34208Y-36767D01*
G01X34148D01*
G01X34056Y-36736D01*
G01X34023Y-36673D01*
G04 //text: U6*
G01X29898Y-15054D02*
G01X29898Y-15519D01*
G01X29929Y-15611D01*
G01X29992Y-15674D01*
G01X30084Y-15704D01*
G01X30147D01*
G01X30239Y-15674D01*
G01X30300Y-15611D01*
G01X30333Y-15519D01*
G01Y-15054D01*
G01X31003Y-15146D02*
G01X30973Y-15085D01*
G01X30881Y-15054D01*
G01X30818D01*
G01X30726Y-15085D01*
G01X30663Y-15179D01*
G01X30632Y-15331D01*
G01Y-15486D01*
G01X30663Y-15611D01*
G01X30726Y-15674D01*
G01X30818Y-15704D01*
G01X30848D01*
G01X30942Y-15674D01*
G01X31003Y-15611D01*
G01X31036Y-15519D01*
G01Y-15486D01*
G01X31003Y-15395D01*
G01X30942Y-15331D01*
G01X30848Y-15301D01*
G01X30818D01*
G01X30726Y-15331D01*
G01X30663Y-15395D01*
G01X30632Y-15486D01*
G04 //text: R1*
G01X11331Y-30991D02*
G01X10681Y-30991D01*
G01X11331Y-30991D02*
G01X11331Y-31271D01*
G01X11301Y-31362D01*
G01X11270Y-31393D01*
G01X11207Y-31426D01*
G01X11146D01*
G01X11085Y-31393D01*
G01X11054Y-31362D01*
G01X11021Y-31271D01*
G01Y-30991D01*
G01X11021Y-31207D02*
G01X10681Y-31426D01*
G01X11207Y-31725D02*
G01X11240Y-31789D01*
G01X11331Y-31880D01*
G01X10681D01*
G04 Text End*

G04 PolygonModel Start*
G54D12*
G01X14288Y-3045D02*
G01X16288Y-3045D01*
G01X16288Y-3045D02*
G01X16288Y-5045D01*
G01X16288Y-5045D02*
G01X18288Y-5045D01*
G01X18288Y-5045D02*
G01X18288Y-3045D01*
G01X18288Y-3045D02*
G01X20288Y-3045D01*
G01X20288Y-3045D02*
G01X20288Y-5045D01*
G01X20288Y-5045D02*
G01X22288Y-5045D01*
G01X22288Y-5045D02*
G01X22288Y-3045D01*
G01X22288Y-3045D02*
G01X24288Y-3045D01*
G01X24288Y-3045D02*
G01X24288Y-5045D01*
G01X12557Y-24945D02*
G01X10088Y-24945D01*
G01X14557Y-24945D02*
G01X14019Y-24945D01*
G01X16557Y-24945D02*
G01X16019Y-24945D01*
G01X18557Y-24945D02*
G01X18019Y-24945D01*
G01X20557Y-24945D02*
G01X20019Y-24945D01*
G01X22557Y-24945D02*
G01X22019Y-24945D01*
G01X26488Y-24026D02*
G01X26488Y-24945D01*
G01X26488Y-24945D02*
G01X24019Y-24945D01*
G01X26488Y-22026D02*
G01X26488Y-22564D01*
G01X26488Y-20026D02*
G01X26488Y-20564D01*
G01X26488Y-18026D02*
G01X26488Y-18564D01*
G01X26488Y-16026D02*
G01X26488Y-16564D01*
G01X26488Y-14026D02*
G01X26488Y-14564D01*
G01X26488Y-12026D02*
G01X26488Y-12564D01*
G01X26488Y-10026D02*
G01X26488Y-10564D01*
G01X10088Y-8564D02*
G01X10088Y-645D01*
G01X10088Y-645D02*
G01X26488Y-645D01*
G01X26488Y-645D02*
G01X26488Y-8564D01*
G01X10088Y-10564D02*
G01X10088Y-10026D01*
G01X10088Y-12564D02*
G01X10088Y-12026D01*
G01X10088Y-14564D02*
G01X10088Y-14026D01*
G01X10088Y-16564D02*
G01X10088Y-16026D01*
G01X10088Y-18564D02*
G01X10088Y-18026D01*
G01X10088Y-20564D02*
G01X10088Y-20026D01*
G01X10088Y-22564D02*
G01X10088Y-22026D01*
G01X10088Y-24945D02*
G01X10088Y-24026D01*
G01X10287Y-6989D02*
G01X26289Y-6989D01*
G01X12288Y-6045D02*
G01X12288Y-3045D01*
G01X12288Y-3045D02*
G01X14288Y-3045D01*
G01X14288Y-3045D02*
G01X14288Y-6045D01*
G01X25154Y-30998D02*
G01X26154Y-30998D01*
G01X26154Y-30998D02*
G01X26154Y-33797D01*
G01X26154Y-33797D02*
G01X25154Y-33797D01*
G01X25154Y-33797D02*
G01X25154Y-30998D01*
G54D13*
G01X24384Y-30734D02*
G02X24633Y-30735I124J-1D01*
G02X24384Y-30737I-124J0D01*
G54D12*
G01X11919Y-31060D02*
G01X12719Y-31060D01*
G01X11609Y-32170D02*
G01X11609Y-31370D01*
G01X13029Y-32170D02*
G01X13029Y-31370D01*
G01X11604Y-32746D02*
G01X11604Y-33546D01*
G01X11913Y-33855D02*
G01X12713Y-33855D01*
G01X13023Y-32746D02*
G01X13023Y-33546D01*
G01X11913Y-33856D02*
G02X11604Y-33546I0J310D01*
G01X13023Y-33546D02*
G02X12713Y-33856I-310J-0D01*
G01X11609Y-31370D02*
G02X11919Y-31060I310J0D01*
G01X12719Y-31060D02*
G02X13029Y-31370I0J-310D01*
G54D14*
G01X14577Y-33701D02*
G01X14577Y-31401D01*
G01X15177Y-33701D02*
G01X14577Y-33701D01*
G01X16330Y-33701D02*
G01X17077Y-33701D01*
G01X17077Y-33701D02*
G01X17177Y-33701D01*
G01X17177Y-33701D02*
G01X17177Y-31401D01*
G01X15177Y-33701D02*
G01X15423Y-33701D01*
G54D11*
G01X28930Y-32930D02*
G01X28930Y-33888D01*
G01X28930Y-33888D02*
G01X30252Y-33888D01*
G01X30252Y-33888D02*
G01X30252Y-32930D01*
G01X28930Y-32077D02*
G01X28930Y-31118D01*
G01X28930Y-31118D02*
G01X30252Y-31118D01*
G01X30252Y-31118D02*
G01X30252Y-32077D01*
G01X6451Y-28612D02*
G01X6451Y-29570D01*
G01X6451Y-29570D02*
G01X7773Y-29570D01*
G01X7773Y-29570D02*
G01X7773Y-28612D01*
G01X6451Y-27759D02*
G01X6451Y-26800D01*
G01X6451Y-26800D02*
G01X7773Y-26800D01*
G01X7773Y-26800D02*
G01X7773Y-27759D01*
G54D12*
G01X8080Y-38796D02*
G01X8080Y-40198D01*
G01X2080Y-38796D02*
G01X2080Y-40198D01*
G01X7353Y-36497D02*
G01X2880Y-36497D01*
G01X7353Y-42497D02*
G01X2807Y-42497D01*
G54D11*
G01X2387Y-28502D02*
G01X2387Y-29461D01*
G01X2387Y-29461D02*
G01X3709Y-29461D01*
G01X3709Y-29461D02*
G01X3709Y-28502D01*
G01X2387Y-27649D02*
G01X2387Y-26691D01*
G01X2387Y-26691D02*
G01X3709Y-26691D01*
G01X3709Y-26691D02*
G01X3709Y-27649D01*
G01X7138Y-31950D02*
G01X7138Y-30991D01*
G01X7138Y-30991D02*
G01X5816Y-30991D01*
G01X5816Y-30991D02*
G01X5816Y-31950D01*
G01X7138Y-32803D02*
G01X7138Y-33761D01*
G01X7138Y-33761D02*
G01X5816Y-33761D01*
G01X5816Y-33761D02*
G01X5816Y-32803D01*
G54D15*
G01X3500Y-32202D02*
G01X3500Y-32212D01*
G01X3500Y-32212D02*
G01X3170Y-32542D01*
G01X2822Y-32202D02*
G01X2832Y-32202D01*
G01X2832Y-32202D02*
G01X3170Y-32542D01*
G01X2822Y-32202D02*
G01X3500Y-32202D01*
G01X2421Y-32182D02*
G01X2421Y-31034D01*
G01X3922Y-32182D02*
G01X3922Y-31034D01*
G01X2421Y-31034D02*
G01X3901Y-31034D01*
G01X3924Y-32563D02*
G01X3924Y-33612D01*
G01X3523Y-33912D02*
G01X3625Y-33912D01*
G01X3625Y-33912D02*
G01X3924Y-33612D01*
G01X2824Y-33912D02*
G01X3523Y-33912D01*
G01X2824Y-33912D02*
G01X2723Y-33912D01*
G01X2723Y-33912D02*
G01X2423Y-33612D01*
G01X2423Y-32563D02*
G01X2423Y-33612D01*
G01X3170Y-32202D02*
G01X3170Y-32542D01*
G54D11*
G01X20167Y-32803D02*
G01X20167Y-33761D01*
G01X20167Y-33761D02*
G01X21489Y-33761D01*
G01X21489Y-33761D02*
G01X21489Y-32803D01*
G01X20167Y-31950D02*
G01X20167Y-30991D01*
G01X20167Y-30991D02*
G01X21489Y-30991D01*
G01X21489Y-30991D02*
G01X21489Y-31950D01*
G54D12*
G01X30792Y-37700D02*
G01X30792Y-38500D01*
G01X29682Y-37390D02*
G01X30482Y-37390D01*
G01X29682Y-38810D02*
G01X30482Y-38810D01*
G01X29106Y-37385D02*
G01X28306Y-37385D01*
G01X27997Y-37694D02*
G01X27997Y-38494D01*
G01X29106Y-38804D02*
G01X28306Y-38804D01*
G01X27997Y-37694D02*
G02X28306Y-37385I310J0D01*
G01X28306Y-38804D02*
G02X27997Y-38494I-0J310D01*
G01X30482Y-37390D02*
G02X30792Y-37700I0J-310D01*
G01X30792Y-38500D02*
G02X30482Y-38810I-310J0D01*
G01X3599Y-18202D02*
G01X3599Y-13802D01*
G01X5799Y-18202D02*
G01X5799Y-13802D01*
G01X3599Y-18202D02*
G01X5799Y-18202D01*
G01X3599Y-13802D02*
G01X5799Y-13802D01*
G01X3599Y-17262D02*
G01X5799Y-17262D01*
G01X29931Y-40556D02*
G01X34331Y-40556D01*
G01X29931Y-42756D02*
G01X34331Y-42756D01*
G01X29931Y-40556D02*
G01X29931Y-42756D01*
G01X34331Y-40556D02*
G01X34331Y-42756D01*
G01X30871Y-40556D02*
G01X30871Y-42756D01*
G01X11915Y-40272D02*
G01X10915Y-40272D01*
G01X11915Y-41317D02*
G01X10922Y-41317D01*
G01X24815Y-40257D02*
G01X25915Y-40257D01*
G01X24815Y-41198D02*
G01X25915Y-41198D01*
G01X10922Y-40837D02*
G01X10922Y-43067D01*
G01X10922Y-43067D02*
G01X25915Y-43067D01*
G01X25915Y-43067D02*
G01X25915Y-37267D01*
G01X25915Y-37267D02*
G01X10915Y-37267D01*
G01X10915Y-37267D02*
G01X10915Y-40917D01*
G01X14229Y-43067D02*
G01X14229Y-42117D01*
G01X14229Y-42117D02*
G01X22615Y-42117D01*
G01X22615Y-42117D02*
G01X22615Y-43067D01*
G01X12907Y-43067D02*
G01X12907Y-42117D01*
G01X12907Y-42117D02*
G01X11915Y-42117D01*
G01X11915Y-42117D02*
G01X11915Y-38217D01*
G01X11915Y-38217D02*
G01X24815Y-38217D01*
G01X24815Y-38217D02*
G01X24815Y-42117D01*
G01X24815Y-42117D02*
G01X23915Y-42117D01*
G01X23915Y-42117D02*
G01X23915Y-43067D01*
G54D11*
G01X32602Y-31216D02*
G01X31644Y-31216D01*
G01X31644Y-31216D02*
G01X31644Y-32538D01*
G01X31644Y-32538D02*
G01X32602Y-32538D01*
G01X33455Y-31216D02*
G01X34414Y-31216D01*
G01X34414Y-31216D02*
G01X34414Y-32538D01*
G01X34414Y-32538D02*
G01X33455Y-32538D01*
G01X32585Y-37439D02*
G01X31626Y-37439D01*
G01X31626Y-37439D02*
G01X31626Y-38761D01*
G01X31626Y-38761D02*
G01X32585Y-38761D01*
G01X33438Y-37439D02*
G01X34396Y-37439D01*
G01X34396Y-37439D02*
G01X34396Y-38761D01*
G01X34396Y-38761D02*
G01X33438Y-38761D01*
G01X32585Y-34391D02*
G01X31626Y-34391D01*
G01X31626Y-34391D02*
G01X31626Y-35713D01*
G01X31626Y-35713D02*
G01X32585Y-35713D01*
G01X33438Y-34391D02*
G01X34396Y-34391D01*
G01X34396Y-34391D02*
G01X34396Y-35713D01*
G01X34396Y-35713D02*
G01X33438Y-35713D01*
G01X32708Y-16200D02*
G01X33454Y-16200D01*
G01X33454Y-16200D02*
G01X33454Y-16446D01*
G01X32708Y-18852D02*
G01X33454Y-18852D01*
G01X33454Y-18852D02*
G01X33454Y-18605D01*
G01X31046Y-16200D02*
G01X30300Y-16200D01*
G01X30300Y-16200D02*
G01X30300Y-16446D01*
G01X31046Y-18852D02*
G01X30300Y-18852D01*
G01X30300Y-18852D02*
G01X30300Y-18605D01*
G01X8864Y-32803D02*
G01X8864Y-33761D01*
G01X8864Y-33761D02*
G01X10186Y-33761D01*
G01X10186Y-33761D02*
G01X10186Y-32803D01*
G01X8864Y-31950D02*
G01X8864Y-30991D01*
G01X8864Y-30991D02*
G01X10186Y-30991D01*
G01X10186Y-30991D02*
G01X10186Y-31950D01*
G04 PolygonModel End*

G04 Circle Start*
G54D17*
G01X9056Y-8295D02*
G03X9520Y-8295I232J0D01*
G03X9056I-232J0D01*
G54D12*
G01X3810Y-39497D02*
G03X6350Y-39497I1270J0D01*
G03X3810I-1270J0D01*
G01X3198Y-41275D02*
G03X3914Y-41275I358J0D01*
G03X3198I-358J0D01*
G01X6246Y-41275D02*
G03X6962Y-41275I358J0D01*
G03X6246I-358J0D01*
G01X6246Y-37719D02*
G03X6962Y-37719I358J0D01*
G03X6246I-358J0D01*
G01X3198Y-37719D02*
G03X3914Y-37719I358J0D01*
G03X3198I-358J0D01*
G54D15*
G01X30023Y-16764D02*
G03X30175Y-16764I76J0D01*
G03X30023I-76J0D01*
G04 Circle End*

M02*
