G04 Layer: BottomLayer*
G04 EasyEDA Pro v1.8.39.fb3963, 2022-11-08 16:35:25*
G04 Gerber Generator version 0.3*
G04 Scale: 100 percent, Rotated: No, Reflected: No*
G04 Dimensions in millimeters*
G04 Leading zeros omitted, absolute positions, 3 integers and 3 decimals*
%FSLAX33Y33*%
%MOMM*%
%ADD10C,1.99898*%
%ADD11C,1.80086*%
%ADD12C,1.799996*%
%ADD13C,0.610001*%
%ADD14C,0.254*%
G75*


G04 Pad Start*
G54D10*
G01X8329Y-41448D03*
G01X1829Y-41448D03*
G01X1829Y-37546D03*
G01X8329Y-37546D03*
G54D11*
G01X4699Y-12001D03*
G01X4699Y-20002D03*
G01X36132Y-41656D03*
G01X28131Y-41656D03*
G54D12*
G01X13335Y-40767D03*
G01X15875Y-40767D03*
G01X18415Y-40767D03*
G01X20955Y-40767D03*
G01X23495Y-40767D03*
G04 Pad End*

G04 Via Start*
G54D13*
G01X28956Y-44323D03*
G01X8636Y-35179D03*
G01X7874Y-31242D03*
G01X22352Y-17399D03*
G01X14252Y-36484D03*
G01X22987Y-32385D03*
G01X21282Y-34725D03*
G01X28194Y-33274D03*
G01X29464Y-36322D03*
G01X25400Y-26416D03*
G01X29083Y-29210D03*
G01X27940Y-21844D03*
G01X31242Y-26035D03*
G01X30861Y-19685D03*
G01X24003Y-29845D03*
G01X28829Y-21336D03*
G01X31877Y-14859D03*
G01X16002Y-15113D03*
G04 Via End*

G04 Track Start*
G54D14*
G01X28956Y-44323D02*
G01X28321Y-43688D01*
G01X24384D01*
G01X23495Y-42799D01*
G01Y-40767D01*
G01X19523Y-36484D02*
G01X14252Y-36484D01*
G01X22987Y-33020D02*
G01X22987Y-32385D01*
G01X22987Y-33020D02*
G01X21282Y-34725D01*
G01X19523Y-36484D01*
G01X28194Y-33274D02*
G01X28194Y-35052D01*
G01X29464Y-36322D01*
G01X30861Y-19685D02*
G01X30861Y-25654D01*
G01X31242Y-26035D01*
G01X8636Y-35179D02*
G01X5334Y-35179D01*
G01X4699Y-34544D01*
G01Y-20002D01*
G01X7874Y-31242D02*
G01X7874Y-30353D01*
G01X20828Y-17399D01*
G01X22352D01*
G01X29083Y-29210D02*
G01X28448Y-28575D01*
G01Y-22352D01*
G01X27940Y-21844D01*
G01X25400Y-26416D02*
G01X25273Y-26416D01*
G01X22987Y-28702D01*
G01Y-32385D01*
G01X24003Y-29845D02*
G01X30353Y-29845D01*
G01X30607Y-29591D01*
G01Y-27051D01*
G01X29591Y-26035D01*
G01X29591Y-22098D02*
G01X29591Y-26035D01*
G01X28829Y-21336D02*
G01X29591Y-22098D01*
G01X31877Y-14859D02*
G01X16256Y-14859D01*
G01X16002Y-15113D01*
G04 Track End*

M02*
